<mxfile host="app.diagrams.net" modified="2021-08-21T06:41:35.294Z" agent="5.0 (Macintosh; Intel Mac OS X 10_15_7) AppleWebKit/537.36 (KHTML, like Gecko) Chrome/92.0.4515.159 Safari/537.36" etag="nbVcQrFh7kkbqmserx2G" version="14.9.3" type="github">
  <diagram id="jgyDpsPYUd2OM-CTH683" name="Page-1">
    <mxGraphModel dx="1106" dy="564" grid="1" gridSize="10" guides="1" tooltips="1" connect="1" arrows="1" fold="1" page="1" pageScale="1" pageWidth="850" pageHeight="1100" math="0" shadow="0">
      <root>
        <mxCell id="0" />
        <mxCell id="1" parent="0" />
        <mxCell id="eN4M-vkryvzpohfYNon4-6" style="edgeStyle=orthogonalEdgeStyle;rounded=0;orthogonalLoop=1;jettySize=auto;html=1;entryX=0.5;entryY=0;entryDx=0;entryDy=0;" edge="1" parent="1" source="eN4M-vkryvzpohfYNon4-1" target="eN4M-vkryvzpohfYNon4-2">
          <mxGeometry relative="1" as="geometry" />
        </mxCell>
        <mxCell id="eN4M-vkryvzpohfYNon4-1" value="&lt;font style=&quot;font-size: 15px&quot;&gt;patch_single_compressed_diff&lt;/font&gt;" style="rounded=0;whiteSpace=wrap;html=1;fillColor=#e1d5e7;strokeColor=#9673a6;" vertex="1" parent="1">
          <mxGeometry x="160" y="100" width="210" height="60" as="geometry" />
        </mxCell>
        <mxCell id="eN4M-vkryvzpohfYNon4-7" value="" style="edgeStyle=orthogonalEdgeStyle;rounded=0;orthogonalLoop=1;jettySize=auto;html=1;" edge="1" parent="1" source="eN4M-vkryvzpohfYNon4-2" target="eN4M-vkryvzpohfYNon4-3">
          <mxGeometry relative="1" as="geometry" />
        </mxCell>
        <mxCell id="eN4M-vkryvzpohfYNon4-2" value="&lt;font style=&quot;font-size: 15px&quot;&gt;patch_decompress&lt;/font&gt;" style="whiteSpace=wrap;html=1;" vertex="1" parent="1">
          <mxGeometry x="160" y="200" width="210" height="60" as="geometry" />
        </mxCell>
        <mxCell id="eN4M-vkryvzpohfYNon4-3" value="&lt;font style=&quot;font-size: 15px&quot;&gt;&amp;nbsp;patch_decompress_with_cache&lt;/font&gt;" style="whiteSpace=wrap;html=1;" vertex="1" parent="1">
          <mxGeometry x="155" y="300" width="220" height="60" as="geometry" />
        </mxCell>
        <mxCell id="eN4M-vkryvzpohfYNon4-4" value="&lt;span lang=&quot;EN-US&quot; style=&quot;font-family: &amp;#34;cambria&amp;#34; , serif&quot;&gt;&lt;font style=&quot;font-size: 19px&quot;&gt;stepsize+I/O cache size+decompress buffer+O(1)&lt;/font&gt;&lt;/span&gt;" style="text;whiteSpace=wrap;html=1;" vertex="1" parent="1">
          <mxGeometry x="480" y="115" width="300" height="30" as="geometry" />
        </mxCell>
        <mxCell id="eN4M-vkryvzpohfYNon4-5" value="&lt;span lang=&quot;EN-US&quot; style=&quot;font-family: &amp;#34;cambria&amp;#34; , serif&quot;&gt;&lt;font style=&quot;font-size: 19px&quot;&gt;patch_KstreamCacheSize*6 + decompressbuf * 4+O(1)&lt;/font&gt;&lt;/span&gt;" style="text;whiteSpace=wrap;html=1;" vertex="1" parent="1">
          <mxGeometry x="480" y="210" width="340" height="30" as="geometry" />
        </mxCell>
        <mxCell id="eN4M-vkryvzpohfYNon4-8" value="&lt;font style=&quot;font-size: 18px&quot;&gt;more cache size&lt;/font&gt;" style="text;html=1;align=center;verticalAlign=middle;resizable=0;points=[];autosize=1;strokeColor=none;" vertex="1" parent="1">
          <mxGeometry x="535" y="320" width="150" height="20" as="geometry" />
        </mxCell>
        <mxCell id="eN4M-vkryvzpohfYNon4-9" value="&lt;font style=&quot;font-size: 21px&quot;&gt;space complexity&lt;/font&gt;" style="text;html=1;align=center;verticalAlign=middle;resizable=0;points=[];autosize=1;strokeColor=none;" vertex="1" parent="1">
          <mxGeometry x="520" y="40" width="180" height="20" as="geometry" />
        </mxCell>
      </root>
    </mxGraphModel>
  </diagram>
</mxfile>
